<svg id="Capa_1" enable-background="new 0 0 504.501 504.501" height="512" viewBox="0 0 504.501 504.501" width="512" xmlns="http://www.w3.org/2000/svg"><g><path d="m331.25 204.9v22.45c-19.51 21.57-47.7 35.15-79 35.15-31.25 0-59.4-13.53-78.9-35.04v-22.56z" fill="#4f5a61"/><path d="m366.479 463.5h-228.542c-4.069 0-7.367-3.357-7.367-7.5s3.298-7.5 7.367-7.5h228.542c4.069 0 7.367 3.357 7.367 7.5s-3.298 7.5-7.367 7.5z" fill="#5f6c76"/><path d="m383.75 493.5h-263c-4.143 0-7.5-3.357-7.5-7.5s3.357-7.5 7.5-7.5h263c4.143 0 7.5 3.357 7.5 7.5s-3.357 7.5-7.5 7.5z" fill="#5f6c76"/><path d="m173.346 204.904h157.904v80.17h-157.904z" fill="#5f6c76"/><path d="m173.35 204.9.496 80.175h22v-38.776c16.367 10.261 35.704 16.202 56.404 16.202 31.3 0 59.49-13.58 79-35.15v-22.451z" fill="#4f5a61"/><path d="m228.75 26h47v51h-47z" fill="#5f6c76"/><path d="m228.75 26h15v51h-15z" fill="#4f5a61"/><circle cx="252.25" cy="156" fill="#7e8a94" r="91.5"/><path d="m242.071 246.93c-45.74-5.06-81.32-43.84-81.32-90.93s35.58-85.87 81.32-90.93c-35.96 14.53-61.32 49.77-61.32 90.93-.001 41.16 25.359 76.4 61.32 90.93z" fill="#5f6c76"/><circle cx="252.25" cy="156" fill="#d82f3d" r="47"/><path d="m291.35 182.1c-8.43 12.6-22.8 20.9-39.1 20.9-25.96 0-47-21.04-47-47 0-16.3 8.3-30.67 20.9-39.1-4.99 7.47-7.9 16.44-7.9 26.1 0 25.96 21.04 47 47 47 9.66 0 18.63-2.91 26.1-7.9z" fill="#c42330"/><circle cx="252.25" cy="157" fill="#5f6c76" r="18"/><circle cx="252.25" cy="157" fill="#7e8a94" r="18"/><path d="m221.693 0h61.116c1.816 0 3.489.984 4.371 2.572l7.222 13c.839 1.51.839 3.346 0 4.856l-18.652 15.572h-47l-18.65-15.572c-.839-1.51-.839-3.346 0-4.856l7.222-13c.882-1.588 2.555-2.572 4.371-2.572z" fill="#7e8a94"/><path d="m243.75 36h-15l-18.65-15.57c-.84-1.51-.84-3.35 0-4.86l7.22-13c.88-1.59 2.56-2.57 4.37-2.57h15c-1.81 0-3.49.98-4.37 2.57l-7.22 13c-.84 1.51-.84 3.35 0 4.86z" fill="#5f6c76"/><path d="m127.75 196.048v81.952l26.548 10 26.548-10v-81.952z" fill="#7e8a94"/><path d="m323.75 196.048v81.952l26.548 10 26.548-10v-81.952z" fill="#7e8a94"/><path d="m376.846 196.05.004 41.22c-7.66 4.96-16.78 7.83-26.55 7.83-9.78 0-18.9-2.87-26.55-7.83v-41.22z" fill="#7e8a94"/><path d="m142.75 216.05v61.95h-15v-81.952z" fill="#5f6c76"/><path d="m128.579 345h-3.829c-11.046 0-20-8.954-20-20v-27c0-11.046 8.954-20 20-20h255c11.046 0 20 8.954 20 20v27c0 11.046-8.954 20-20 20h-3.829z" fill="#d82f3d"/><path d="m391.1 341.46c-3.22 2.23-7.13 3.54-11.35 3.54h-255c-4.21 0-8.12-1.3-11.34-3.54l17.86-32.5c4.39-7.99 12.78-12.96 21.9-12.96h198.16c9.12 0 17.51 4.97 21.91 12.96z" fill="#c42330"/><path d="m112.744 504.501c-1.25 0-2.518-.313-3.684-.972-3.606-2.038-4.877-6.613-2.839-10.22l41.788-73.907c2.038-3.605 6.613-4.879 10.22-2.839 3.606 2.038 4.877 6.613 2.839 10.22l-41.788 73.907c-1.379 2.44-3.92 3.811-6.536 3.811z" fill="#4f5a61"/><path d="m391.757 504.501c-2.6 0-5.127-1.353-6.513-3.77l-42.734-74.696c-2.061-3.593-.818-8.177 2.774-10.237 3.596-2.06 8.178-.819 10.237 2.774l42.734 74.696c2.061 3.593.818 8.177-2.774 10.237-1.176.676-2.458.996-3.724.996z" fill="#4f5a61"/><path d="m402.102 411.472c.083 5.323-4.018 9.778-9.329 10.134l-132.153 8.864c-2.78.19-5.57.28-8.37.28s-5.59-.09-8.37-.28l-132.152-8.864c-5.311-.356-9.413-4.811-9.33-10.134l.352-19.472 143.14 11.54c4.22.28 8.5.28 12.72 0l143.14-11.54z" fill="#d82f3d"/><path d="m402.1 414.47c.08 5.32-4.02 9.78-9.33 10.14l-132.15 8.86c-2.78.19-5.57.28-8.37.28s-5.59-.09-8.37-.28l-132.15-8.86c-5.31-.36-9.41-4.82-9.33-10.14l.22-13.81c.88 4.31 4.55 7.64 9.11 7.95l132.15 8.86c2.78.19 5.57.28 8.37.28s5.59-.09 8.37-.28l132.15-8.86c4.56-.31 8.23-3.64 9.11-7.95z" fill="#c42330"/><path d="m391.1 341.46c-3.22 2.23-7.13 3.54-11.35 3.54h-255c-4.21 0-8.12-1.3-11.34-3.54l17.86-32.5c4.39-7.99 12.78-12.96 21.9-12.96h198.16c9.12 0 17.51 4.97 21.91 12.96z" fill="#c42330"/><path d="m401.75 392-142 11.45-1.14.09c-4.22.28-8.5.28-12.72 0l-1.14-.09-142-11.45 41.661-75.816c1.757-3.197 5.116-5.184 8.764-5.184h198.149c3.648 0 7.007 1.987 8.764 5.184z" fill="#5f6c76"/><g fill="#4f5a61"><path d="m259.75 311v92.45l-1.14.09c-4.22.28-8.5.28-12.72 0l-1.14-.09v-92.45z"/><path d="m215.68 311-9.639 89.33-14.95-1.21 9.5-88.12z"/><path d="m181.811 311-22.451 85.56-15.19-1.22 22.131-84.34z"/><path d="m360.331 395.34-15.19 1.22-22.441-85.56h15.51z"/><path d="m313.311 399.13-14.961 1.21-9.529-89.34h15.089z"/></g><circle cx="154.298" cy="196.048" fill="#f3d333" r="26.548"/><circle cx="350.298" cy="196.048" fill="#f3d333" r="26.548"/><path d="m179.01 205.76c-3.87 9.86-13.48 16.84-24.71 16.84-14.66 0-26.55-11.89-26.55-26.55 0-11.23 6.98-20.84 16.84-24.71-1.19 3-1.84 6.28-1.84 9.71 0 14.66 11.89 26.55 26.55 26.55 3.43 0 6.71-.65 9.71-1.84z" fill="#e8a42b"/><path d="m375.01 205.76c-3.87 9.86-13.48 16.84-24.71 16.84-14.66 0-26.55-11.89-26.55-26.55 0-11.23 6.98-20.84 16.84-24.71-1.19 3-1.84 6.28-1.84 9.71 0 14.66 11.89 26.55 26.55 26.55 3.43 0 6.71-.65 9.71-1.84z" fill="#e8a42b"/></g></svg>